<?xml version="1.0" standalone="no"?>
<!DOCTYPE svg PUBLIC "-//W3C//DTD SVG 20010904//EN"
 "http://www.w3.org/TR/2001/REC-SVG-20010904/DTD/svg10.dtd">
<svg version="1.0" xmlns="http://www.w3.org/2000/svg"
 width="700.000000pt" height="700.000000pt" viewBox="0 0 700.000000 700.000000"
 preserveAspectRatio="xMidYMid meet">
<metadata>
Created by potrace 1.14, written by Peter Selinger 2001-2017
</metadata>
<g transform="translate(0.000000,700.000000) scale(0.100000,-0.100000)"
fill="#000000" stroke="none">
<path d="M3230 6549 c-41 -4 -100 -10 -130 -14 -30 -4 -68 -9 -85 -11 -50 -6
-198 -34 -240 -45 -22 -6 -50 -13 -62 -15 -52 -10 -265 -78 -368 -119 -908
-356 -1586 -1122 -1839 -2077 -35 -130 -48 -191 -60 -273 -4 -23 -9 -52 -11
-65 -25 -122 -26 -711 -1 -840 3 -14 7 -42 10 -62 3 -21 10 -57 15 -80 6 -24
12 -56 15 -73 10 -53 46 -186 83 -300 232 -725 735 -1349 1390 -1726 227 -131
433 -217 723 -303 69 -20 267 -62 340 -71 30 -4 64 -9 75 -11 130 -25 634 -25
786 1 13 2 44 6 69 9 547 59 1151 335 1592 727 468 415 786 928 952 1529 19
71 62 281 71 345 3 28 8 64 10 80 33 249 23 585 -26 870 -87 515 -358 1079
-708 1479 -86 98 -295 298 -391 376 -168 134 -435 303 -594 375 -123 55 -145
65 -216 93 -161 64 -418 135 -580 161 -36 6 -74 13 -85 15 -11 2 -49 7 -85 11
-36 4 -74 9 -85 12 -33 8 -485 10 -565 2z m423 -713 c66 -7 78 -9 142 -22 76
-15 206 -59 265 -90 36 -19 91 -59 123 -89 51 -49 67 -59 143 -81 476 -137
931 -561 1080 -1004 16 -45 36 -72 109 -146 112 -113 121 -124 171 -204 141
-224 151 -487 25 -680 -83 -129 -201 -215 -441 -323 -84 -38 -380 -139 -446
-151 -10 -2 -44 -11 -74 -20 -30 -8 -66 -17 -80 -20 -14 -3 -34 -7 -45 -10
-89 -20 -131 -29 -261 -50 -141 -24 -177 -29 -291 -41 -86 -9 -111 -15 -116
-29 -7 -18 -1 -224 8 -291 6 -46 26 -166 40 -240 12 -63 67 -229 98 -293 62
-131 137 -229 203 -262 16 -8 40 -22 54 -31 14 -9 66 -28 115 -43 50 -15 96
-29 102 -31 25 -8 -36 -119 -84 -152 -159 -111 -404 7 -584 282 -32 50 -66 99
-74 110 -15 19 -15 18 -9 -15 21 -119 84 -272 149 -361 19 -25 82 -90 140
-146 93 -87 106 -104 103 -128 -2 -20 -13 -35 -36 -48 -61 -36 -152 -19 -249
47 -54 37 -172 155 -190 191 -9 17 -19 32 -23 35 -4 3 -26 44 -50 92 -24 48
-45 86 -48 84 -2 -3 4 -51 14 -108 11 -63 19 -152 19 -228 0 -110 -3 -130 -22
-167 -78 -146 -249 -122 -298 40 -15 52 -11 189 9 293 4 18 17 120 18 134 1
24 -7 13 -41 -53 -83 -164 -200 -292 -319 -349 -125 -59 -254 -23 -226 64 8
27 10 28 103 103 171 137 272 325 315 587 3 16 3 28 1 28 -1 0 -19 -34 -39
-76 -103 -216 -268 -383 -435 -439 -76 -25 -167 -18 -217 18 -50 34 -86 87
-87 128 -2 31 0 33 63 56 36 12 75 23 87 23 12 0 34 10 50 23 15 12 45 31 65
41 89 45 202 215 264 398 29 86 60 231 69 323 4 39 9 79 11 90 2 11 6 75 10
141 6 136 0 153 -59 155 -18 1 -41 3 -52 4 -11 1 -47 6 -80 9 -33 4 -69 9 -80
11 -11 2 -40 7 -65 10 -40 4 -103 15 -180 30 -350 67 -687 174 -923 292 -292
144 -400 298 -398 563 2 236 68 372 284 580 72 70 80 81 112 169 167 450 580
825 1099 997 56 18 67 26 118 85 81 93 277 165 498 185 41 3 76 7 77 8 5 4
206 -2 266 -8z m-1727 -3358 c64 -30 95 -79 102 -164 l5 -66 60 -47 c100 -76
129 -103 119 -113 -12 -12 -39 0 -44 20 -3 9 -18 24 -34 32 -59 30 -139 83
-149 99 -5 9 -10 41 -10 73 -2 97 -44 133 -142 126 -147 -12 -145 -166 3 -199
63 -14 71 -21 48 -43 -35 -35 -119 -13 -168 44 -71 85 -50 189 49 239 51 27
104 26 161 -1z m3303 -3 c92 -47 120 -165 55 -231 -50 -49 -148 -71 -174 -39
-16 19 -18 18 55 41 46 15 65 27 82 53 54 80 -37 164 -146 137 -62 -16 -83
-47 -85 -129 -1 -64 -2 -67 -46 -107 -25 -23 -58 -49 -74 -57 -29 -15 -116
-44 -116 -38 0 2 28 24 63 48 105 77 119 93 115 140 -6 94 31 156 112 191 41
18 116 14 159 -9z m-2769 -217 c28 -47 10 -111 -36 -128 -29 -11 -75 -13 -98
-4 -30 11 -59 72 -52 108 17 90 136 106 186 24z m2221 41 c23 -12 49 -60 49
-90 0 -12 -16 -37 -36 -55 -46 -44 -91 -46 -134 -6 -91 81 13 209 121 151z
m-2556 -434 c39 -18 59 -22 95 -16 71 10 95 8 95 -9 0 -10 -18 -19 -56 -26
-72 -14 -75 -17 -83 -58 -9 -47 -85 -146 -133 -173 -120 -67 -273 7 -273 132
0 48 21 86 67 123 81 63 189 74 288 27z m2983 2 c25 -12 59 -40 76 -61 26 -32
31 -47 31 -91 0 -44 -5 -59 -30 -91 -52 -64 -154 -81 -234 -39 -52 26 -110 93
-121 138 -6 23 -14 48 -18 56 -11 19 -68 39 -114 40 -44 1 -58 18 -26 30 21 8
118 6 144 -3 6 -3 26 4 43 15 68 41 173 44 249 6z"/>
<path d="M3337 5674 c-1 -1 -36 -4 -78 -8 -150 -13 -222 -44 -337 -148 -72
-66 -88 -76 -168 -101 -141 -44 -421 -179 -432 -209 -2 -4 -8 -8 -14 -8 -17 0
-170 -124 -246 -200 -139 -139 -256 -319 -316 -488 -39 -110 -52 -130 -146
-227 -47 -49 -101 -109 -119 -132 -39 -52 -96 -173 -108 -233 -22 -106 2 -239
57 -322 37 -56 109 -127 152 -150 l32 -18 24 50 c39 83 128 146 298 214 139
55 432 127 619 152 28 3 58 8 69 10 10 2 44 6 75 10 31 3 70 8 86 10 17 2 66
6 110 9 44 4 91 8 104 10 133 22 796 22 1031 0 19 -2 67 -6 105 -9 39 -4 84
-9 100 -11 17 -3 51 -7 77 -10 26 -2 78 -10 115 -16 37 -6 82 -13 98 -16 17
-2 46 -8 65 -13 19 -5 49 -12 66 -14 63 -11 264 -67 350 -97 221 -78 354 -170
354 -246 0 -34 13 -35 61 -4 145 92 227 286 194 461 -21 115 -97 242 -223 371
-97 100 -108 116 -151 229 -167 435 -515 735 -1051 906 -42 14 -69 32 -120 83
-127 127 -251 162 -578 166 -84 0 -153 0 -155 -1z m1492 -992 c94 -51 90 -190
-7 -237 -80 -39 -179 17 -189 108 -13 110 97 182 196 129z m-1228 -79 c31 -18
59 -67 59 -103 0 -26 -22 -70 -46 -91 -49 -43 -137 -30 -179 25 -29 38 -32 74
-10 120 29 62 114 85 176 49z m1638 -280 c17 -16 31 -39 33 -53 4 -35 -19 -85
-45 -98 -48 -24 -83 -18 -118 19 -40 42 -40 90 0 130 40 39 89 40 130 2z"/>
<path d="M3149 3706 c-2 -2 -58 -7 -124 -10 -66 -4 -133 -9 -150 -11 -16 -2
-61 -7 -100 -10 -95 -8 -124 -12 -240 -31 -55 -9 -111 -18 -125 -20 -54 -7
-308 -76 -375 -101 -113 -42 -165 -81 -165 -121 0 -74 191 -157 525 -228 153
-33 137 -30 230 -44 44 -7 88 -14 98 -16 10 -2 46 -6 80 -9 35 -3 87 -10 118
-14 31 -4 71 -7 90 -7 l34 1 1 60 c6 235 17 396 29 416 7 11 833 11 840 -1 12
-19 15 -57 20 -259 3 -112 8 -208 10 -212 7 -10 120 -3 245 16 14 3 70 11 125
19 55 9 125 20 155 26 30 6 71 13 90 16 60 9 271 64 350 91 148 51 225 106
213 154 -8 30 -74 74 -162 108 -63 24 -268 81 -346 97 -73 15 -250 44 -300 49
-33 4 -69 8 -80 10 -11 1 -58 6 -105 10 -47 4 -105 9 -130 11 -60 6 -845 15
-851 10z m-589 -221 c9 -11 7 -16 -8 -24 -31 -17 -112 -41 -182 -56 -8 -2 -51
-12 -95 -23 -152 -38 -184 -38 -185 0 0 17 66 38 230 73 96 20 176 38 177 39
9 8 53 3 63 -9z m1970 -1 c36 -8 61 -13 95 -20 86 -15 238 -59 250 -71 21 -20
7 -43 -26 -43 -65 0 -429 106 -429 125 0 25 27 27 110 9z m-1736 -62 c2 -4 1
-13 -3 -20 -9 -15 -295 -109 -350 -116 -37 -4 -41 -2 -41 18 0 26 14 34 115
64 39 12 99 30 135 41 68 20 135 26 144 13z m1511 -7 c70 -16 251 -79 267 -93
14 -12 15 -18 6 -29 -13 -17 -44 -13 -153 21 -168 51 -242 91 -198 107 18 7
25 6 78 -6z m-1338 -21 c7 -18 -9 -33 -107 -100 -108 -74 -138 -88 -156 -73
-34 28 -9 54 125 133 99 58 128 67 138 40z m1216 -54 c113 -73 132 -94 103
-116 -24 -17 -34 -12 -146 64 -117 80 -122 84 -114 105 11 31 49 18 157 -53z"/>
</g>
</svg>
